<svg id="Capa_1" enable-background="new 0 0 512 512" height="512" viewBox="0 0 512 512" width="512" xmlns="http://www.w3.org/2000/svg"><path d="m68.92 414.225c-11.107 31.147-24.283 78.822-5.024 88.329 18.098 8.934 45.536-25.37 63.691-52.574-25.103-9.337-44.255-21.617-58.667-35.755z" fill="#7b7179"/><path d="m384.413 449.98c18.155 27.204 45.593 61.508 63.691 52.574 19.259-9.507 6.084-57.182-5.024-88.329-14.412 14.138-33.564 26.418-58.667 35.755z" fill="#7b7179"/><ellipse cx="115.919" cy="93.176" fill="#00e0a7" rx="23.661" ry="23.661" transform="matrix(.707 -.707 .707 .707 -31.934 109.258)"/><path d="m115.919 98.837c-9.881 0-18.342-6.058-21.884-14.661-1.143 2.775-1.777 5.813-1.777 9 0 13.068 10.593 23.661 23.661 23.661s23.661-10.593 23.661-23.661c0-3.187-.634-6.225-1.777-9-3.542 8.603-12.004 14.661-21.884 14.661z" fill="#00c988"/><ellipse cx="316.025" cy="98.274" fill="#00e0a7" rx="23.661" ry="23.661" transform="matrix(.383 -.924 .924 .383 104.294 352.636)"/><path d="m316.025 103.935c-9.881 0-18.342-6.058-21.884-14.661-1.142 2.775-1.777 5.813-1.777 9 0 13.067 10.593 23.661 23.661 23.661s23.661-10.593 23.661-23.661c0-3.187-.634-6.225-1.777-9-3.541 8.603-12.003 14.661-21.884 14.661z" fill="#00c988"/><circle cx="390.668" cy="41.307" fill="#00e0a7" r="23.661"/><path d="m390.668 46.967c-9.88 0-18.342-6.058-21.884-14.661-1.143 2.775-1.777 5.813-1.777 9 0 13.068 10.593 23.661 23.661 23.661s23.661-10.593 23.661-23.661c0-3.187-.634-6.225-1.777-9-3.542 8.603-12.004 14.661-21.884 14.661z" fill="#00c988"/><circle cx="225.749" cy="41.307" fill="#00e0a7" r="33.307"/><path d="m225.749 56.613c-15.275 0-28.138-10.286-32.066-24.307-.802 2.864-1.241 5.88-1.241 9 0 18.395 14.912 33.307 33.307 33.307s33.307-14.912 33.307-33.307c0-3.12-.438-6.136-1.241-9-3.928 14.021-16.792 24.307-32.066 24.307z" fill="#00c988"/><path d="m461.414 193.348h-410.828c-13.566 0-24.563-10.997-24.563-24.563 0-13.566 10.997-24.563 24.563-24.563h410.828c13.566 0 24.563 10.997 24.563 24.563 0 13.565-10.997 24.563-24.563 24.563z" fill="#e6e2e6"/><path d="m461.414 175.347h-410.828c-10.388 0-19.263-6.451-22.854-15.563-1.099 2.788-1.709 5.822-1.709 9 0 13.566 10.997 24.563 24.563 24.563h410.828c13.566 0 24.563-10.997 24.563-24.563 0-3.178-.61-6.212-1.709-9-3.591 9.112-12.466 15.563-22.854 15.563z" fill="#d8d1d7"/><path d="m453.825 193.347s139.869 275.738-197.825 275.738-197.825-275.738-197.825-275.738z" fill="#8c808a"/><path d="m443.08 414.225c-14.412 14.138-33.565 26.417-58.668 35.755 3.301 4.946 6.909 10.127 10.712 15.24 22.168-8.181 40.198-18.458 54.745-30.228-2.153-7.302-4.513-14.383-6.789-20.767z" fill="#686167"/><path d="m62.131 434.991c14.547 11.77 32.576 22.048 54.745 30.228 3.803-5.113 7.411-10.293 10.712-15.24-25.103-9.338-44.255-21.617-58.668-35.755-2.276 6.385-4.636 13.466-6.789 20.767z" fill="#686167"/><path d="m256 451.086c-177.421 0-223.013-76.113-226.33-148.361-3.391 76.984 34.07 166.361 226.33 166.361s229.721-89.377 226.33-166.361c-3.317 72.248-48.909 148.361-226.33 148.361z" fill="#7b7179"/><path d="m461.677 211.347c-4.456-11.303-7.853-18-7.853-18h-395.649s-3.396 6.697-7.853 18z" fill="#7b7179"/><path d="m218.521 144.221h-45.466-45.467v151.077c0 12.555 10.178 22.733 22.733 22.733 12.555 0 22.733-10.178 22.733-22.733v-53.527c0-12.555 10.178-22.733 22.733-22.733s22.732 10.177 22.733 22.731v13.041c0 12.555 10.178 22.733 22.733 22.733 12.555 0 22.733-10.178 22.733-22.733v-110.589z" fill="#00e0a7"/><path d="m150.321 300.031c-12.555 0-22.733-10.178-22.733-22.733v18c0 12.555 10.178 22.733 22.733 22.733 12.555 0 22.733-10.178 22.733-22.733v-18c0 12.555-10.178 22.733-22.733 22.733z" fill="#00c988"/><path d="m241.254 259.543c-12.555 0-22.733-10.178-22.733-22.733v-13.041c-.002-12.554-10.179-22.731-22.734-22.731s-22.733 10.178-22.733 22.734v18c0-12.555 10.178-22.734 22.733-22.734s22.732 10.177 22.734 22.731v13.041c0 12.555 10.178 22.733 22.733 22.733s22.733-10.178 22.733-22.733v-18c0 12.554-10.178 22.733-22.733 22.733z" fill="#00c988"/><path d="m465.765 200.458c15.841-1.966 28.146-15.502 28.146-31.867 0-17.712-14.41-32.122-32.122-32.122h-411.578c-17.712 0-32.122 14.41-32.122 32.122 0 16.365 12.305 29.902 28.147 31.867-4.926 11.512-12.56 31.476-18.066 55.767-5.068 22.36-7.25 43.733-6.483 63.525.97 25.054 6.687 47.643 16.991 67.138 5.711 10.806 12.814 20.645 21.26 29.531-18.512 53.518-18.415 84.059.282 93.288 3.093 1.527 6.337 2.292 9.744 2.292 16.232-.002 36.12-17.395 60.348-52.673 18.155 6.238 38.504 10.843 61.049 13.766 4.113.528 7.979-2.5 8.432-6.625.441-4.016-2.489-7.757-6.5-8.278-71.162-9.226-118.703-35.561-141.303-78.272-21.032-39.748-16.638-87.196-9.247-120.001 6.295-27.943 15.778-50.34 19.826-59.204h57.271v94.624c0 16.701 13.587 30.288 30.289 30.288 16.7 0 30.288-13.587 30.288-30.288v-53.626c0-8.415 6.846-15.261 15.261-15.261s15.26 6.846 15.261 15.259v13.065c0 16.701 13.587 30.289 30.289 30.289 16.7 0 30.288-13.587 30.288-30.289v-54.06h92.227c4.15 0 7.514-3.364 7.514-7.514s-3.364-7.514-7.514-7.514h-92.227v-34.189h190.275c9.426 0 17.095 7.669 17.095 17.095s-7.668 17.094-17.095 17.094h-67.993c-4.15 0-7.514 3.364-7.514 7.514s3.363 7.514 7.514 7.514h55.636c4.205 9.209 14.258 32.992 20.531 62.422 7.298 34.233 10.84 83.426-13.718 123.377-30.761 50.042-98.133 75.415-200.245 75.415-11.472 0-22.669-.328-33.28-.974-4.154-.251-7.704 2.902-7.957 7.043-.252 4.142 2.901 7.704 7.043 7.957 10.915.665 22.419 1.002 34.194 1.002 49.61 0 91.557-5.912 125.689-17.628 24.227 35.281 44.113 52.673 60.345 52.673 3.407 0 6.653-.766 9.743-2.292 18.699-9.23 18.795-39.774.279-93.3 6.457-6.799 12.15-14.148 17.022-22.081 21.527-35.057 26.885-81.642 15.496-134.72-5.537-25.805-13.656-47.104-18.811-59.149zm-375.521 284.316c-10.101 9.629-18.62 13.803-23.373 11.459-7.096-3.503-9.558-23.635 5.132-68.54 12.398 10.313 27.011 19.037 43.833 26.131-9.219 13.133-17.809 23.529-25.592 30.95zm-40.033-299.088c-9.426 0-17.095-7.668-17.095-17.094s7.668-17.095 17.095-17.095h69.629v34.189zm206.276 69.087c0 8.415-6.846 15.261-15.26 15.261-8.415 0-15.261-6.846-15.261-15.261v-13.065c-.001-16.699-13.588-30.286-30.289-30.286s-30.289 13.587-30.289 30.289v53.626c0 8.415-6.846 15.261-15.261 15.261s-15.26-6.846-15.26-15.261v-143.84h121.62zm188.641 241.46c-4.753 2.346-13.271-1.831-23.372-11.459-7.784-7.421-16.374-17.817-25.592-30.951 16.821-7.089 31.432-15.809 43.833-26.131 14.69 44.907 12.228 65.038 5.131 68.541z"/><path d="m115.663 124.063c17.214 0 31.218-14.005 31.218-31.218s-14.004-31.218-31.218-31.218-31.218 14.005-31.218 31.218 14.004 31.218 31.218 31.218zm0-47.408c8.927 0 16.191 7.263 16.191 16.19s-7.263 16.191-16.191 16.191-16.191-7.263-16.191-16.191 7.264-16.19 16.191-16.19z"/><path d="m316.135 129.171c17.214 0 31.218-14.005 31.218-31.218s-14.004-31.217-31.218-31.217-31.218 14.004-31.218 31.217 14.004 31.218 31.218 31.218zm0-47.409c8.927 0 16.191 7.263 16.191 16.19s-7.263 16.191-16.191 16.191-16.191-7.263-16.191-16.191 7.264-16.19 16.191-16.19z"/><path d="m390.914 72.099c17.213 0 31.217-14.004 31.217-31.218s-14.004-31.218-31.217-31.218c-17.214 0-31.218 14.005-31.218 31.218s14.004 31.218 31.218 31.218zm0-47.408c8.927 0 16.19 7.263 16.19 16.191s-7.262 16.19-16.19 16.19-16.191-7.263-16.191-16.19 7.263-16.191 16.191-16.191z"/><path d="m203.315 66.74c3.336-2.467 4.041-7.172 1.573-10.508-3.303-4.466-5.048-9.774-5.048-15.351 0-14.256 11.598-25.854 25.854-25.854 14.255 0 25.854 11.598 25.854 25.854s-11.598 25.854-25.854 25.854c-4.15 0-7.514 3.364-7.514 7.514s3.363 7.514 7.514 7.514c22.542 0 40.881-18.339 40.881-40.881 0-22.543-18.339-40.882-40.881-40.882s-40.881 18.339-40.881 40.881c0 8.817 2.764 17.215 7.993 24.286 2.469 3.338 7.173 4.04 10.509 1.573z"/></svg>