<svg id="Capa_1" data-name="Capa 1" xmlns="http://www.w3.org/2000/svg" viewBox="0 0 475.82 512"><title>borders-2</title><path d="M68.92,414.22c-11.11,31.15-24.28,78.83-5,88.33C82,511.49,109.43,477.18,127.59,450,102.48,440.64,83.33,428.36,68.92,414.22Z" transform="translate(-18.09 0)" fill="#7b7179"/><path d="M384.41,450c18.16,27.2,45.6,61.51,63.69,52.57,19.26-9.5,6.09-57.18-5-88.33-14.41,14.14-33.56,26.42-58.67,35.76Z" transform="translate(-18.09 0)" fill="#7b7179"/><circle cx="97.81" cy="93.18" r="23.66" fill="#e30613"/><path d="M115.92,98.84A23.68,23.68,0,0,1,94,84.18a23.67,23.67,0,1,0,43.77,0A23.66,23.66,0,0,1,115.92,98.84Z" transform="translate(-18.09 0)" fill="#e30613"/><circle cx="316.14" cy="98.27" r="23.67" transform="translate(86.22 352.68) rotate(-67.49)" fill="#e30613"/><path d="M316,103.93a23.65,23.65,0,0,1-21.88-14.66,23.67,23.67,0,1,0,43.77,0A23.65,23.65,0,0,1,316,103.93Z" transform="translate(-18.09 0)" fill="#e30613"/><circle cx="372.58" cy="41.31" r="23.66" fill="#e30613"/><path d="M390.67,47a23.68,23.68,0,0,1-21.89-14.66,23.67,23.67,0,1,0,43.77,0A23.66,23.66,0,0,1,390.67,47Z" transform="translate(-18.09 0)" fill="#e30613"/><circle cx="207.66" cy="41.31" r="33.31" fill="#e30613"/><path d="M225.75,56.61a33.31,33.31,0,0,1-32.07-24.3,33.31,33.31,0,1,0,64.14,0A33.32,33.32,0,0,1,225.75,56.61Z" transform="translate(-18.09 0)" fill="#e30613"/><path d="M461.41,193.35H50.59a24.57,24.57,0,1,1,0-49.13H461.41a24.57,24.57,0,1,1,0,49.13Z" transform="translate(-18.09 0)" fill="#e6e2e6"/><path d="M461.41,175.35H50.59a24.56,24.56,0,0,1-22.86-15.57,24.57,24.57,0,0,0,22.86,33.57H461.41a24.57,24.57,0,0,0,22.86-33.57,24.56,24.56,0,0,1-22.86,15.57Z" transform="translate(-18.09 0)" fill="#d8d1d7"/><path d="M453.83,193.35S593.69,469.09,256,469.09,58.18,193.35,58.18,193.35Z" transform="translate(-18.09 0)" fill="#8c808a"/><path d="M443.08,414.22c-14.41,14.14-33.57,26.42-58.67,35.76,3.3,4.95,6.91,10.13,10.71,15.24,22.17-8.18,40.2-18.46,54.75-30.23C447.72,427.69,445.36,420.61,443.08,414.22Z" transform="translate(-18.09 0)" fill="#686167"/><path d="M62.13,435c14.55,11.77,32.58,22.05,54.75,30.23,3.8-5.11,7.41-10.29,10.71-15.24-25.1-9.34-44.26-21.62-58.67-35.76C66.64,420.61,64.28,427.69,62.13,435Z" transform="translate(-18.09 0)" fill="#686167"/><path d="M256,451.09C78.58,451.09,33,375,29.67,302.72c-3.39,77,34.07,166.37,226.33,166.37s229.72-89.38,226.33-166.37C479,375,433.42,451.09,256,451.09Z" transform="translate(-18.09 0)" fill="#7b7179"/><path d="M461.68,211.35c-4.46-11.31-7.86-18-7.86-18H58.18s-3.4,6.69-7.86,18Z" transform="translate(-18.09 0)" fill="#7b7179"/><path d="M218.52,144.22H127.59V295.3a22.73,22.73,0,0,0,45.46,0V241.77a22.74,22.74,0,0,1,45.47,0v13a22.74,22.74,0,0,0,45.47,0V144.22Z" transform="translate(-18.09 0)" fill="#e30613"/><path d="M150.32,300a22.73,22.73,0,0,1-22.73-22.73v18a22.73,22.73,0,0,0,45.46,0v-18A22.73,22.73,0,0,1,150.32,300Z" transform="translate(-18.09 0)" fill="#e30613"/><path d="M241.25,259.54a22.73,22.73,0,0,1-22.73-22.73v-13a22.74,22.74,0,0,0-45.47,0v18a22.74,22.74,0,0,1,45.47,0v13a22.74,22.74,0,0,0,45.47,0v-18A22.74,22.74,0,0,1,241.25,259.54Z" transform="translate(-18.09 0)" fill="#e30613"/><path d="M465.77,200.46a32.12,32.12,0,0,0-4-64H50.21a32.12,32.12,0,0,0-4,64,330.26,330.26,0,0,0-18.07,55.76c-5.07,22.37-7.25,43.74-6.48,63.53,1,25.05,6.68,47.64,17,67.14a132.78,132.78,0,0,0,21.26,29.53c-18.51,53.52-18.42,84.06.28,93.29A21.81,21.81,0,0,0,70,512c16.24,0,36.12-17.4,60.35-52.67a311.65,311.65,0,0,0,61.05,13.76,7.51,7.51,0,0,0,1.93-14.9C122.13,449,74.59,422.63,52,379.92c-21-39.75-16.64-87.2-9.25-120a315,315,0,0,1,19.83-59.21h57.27v94.63a30.29,30.29,0,0,0,60.58,0V241.71a15.26,15.26,0,1,1,30.52,0v13.06a30.29,30.29,0,0,0,60.58,0V200.71h92.22a7.52,7.52,0,1,0,0-15H271.52V151.5H461.79a17.09,17.09,0,1,1,0,34.18h-68a7.52,7.52,0,1,0,0,15h55.63A314,314,0,0,1,470,263.13c7.3,34.24,10.84,83.43-13.71,123.38-30.76,50-98.14,75.42-200.25,75.42-11.47,0-22.67-.33-33.28-1a7.51,7.51,0,1,0-.91,15c10.91.67,22.42,1,34.19,1q74.42,0,125.69-17.62C405.92,494.61,425.8,512,442,512a21.81,21.81,0,0,0,9.74-2.29c18.7-9.23,18.79-39.78.28-93.3a133.82,133.82,0,0,0,17-22.08c21.53-35.06,26.88-81.64,15.5-134.72a329,329,0,0,0-18.82-59.15ZM90.24,484.77c-10.1,9.63-18.62,13.81-23.37,11.46-7.09-3.5-9.56-23.63,5.13-68.54a173,173,0,0,0,43.84,26.13C106.62,467,98,477.35,90.24,484.77Zm-40-299.08a17.1,17.1,0,0,1,0-34.19h69.63v34.19Zm206.28,69.08a15.26,15.26,0,1,1-30.52,0V241.71a30.29,30.29,0,1,0-60.58,0v53.63a15.26,15.26,0,1,1-30.52,0V151.5H256.49ZM445.13,496.23c-4.75,2.35-13.27-1.83-23.37-11.46-7.79-7.42-16.38-17.81-25.6-30.95A173,173,0,0,0,440,427.69C454.69,472.6,452.23,492.73,445.13,496.23Z" transform="translate(-18.09 0)"/><path d="M115.66,124.06A31.22,31.22,0,1,0,84.44,92.84,31.25,31.25,0,0,0,115.66,124.06Zm0-47.41A16.2,16.2,0,1,1,99.47,92.84,16.21,16.21,0,0,1,115.66,76.65Z" transform="translate(-18.09 0)"/><path d="M316.14,129.17A31.22,31.22,0,1,0,284.92,98,31.25,31.25,0,0,0,316.14,129.17Zm0-47.41A16.19,16.19,0,1,1,299.94,98,16.22,16.22,0,0,1,316.14,81.76Z" transform="translate(-18.09 0)"/><path d="M390.91,72.1A31.22,31.22,0,1,0,359.7,40.88,31.26,31.26,0,0,0,390.91,72.1Zm0-47.41a16.19,16.19,0,1,1-16.19,16.19A16.2,16.2,0,0,1,390.91,24.69Z" transform="translate(-18.09 0)"/><path d="M203.32,66.74a7.52,7.52,0,0,0,1.57-10.51,25.86,25.86,0,1,1,20.8,10.5,7.52,7.52,0,0,0,0,15,40.88,40.88,0,1,0-32.88-16.59,7.52,7.52,0,0,0,10.51,1.57Z" transform="translate(-18.09 0)"/><circle cx="373.28" cy="129.96" r="11.83" fill="#e30613"/><path d="M391.37,132.79a11.82,11.82,0,0,1-10.94-7.33A11.83,11.83,0,1,0,403.2,130a11.65,11.65,0,0,0-.89-4.5A11.82,11.82,0,0,1,391.37,132.79Z" transform="translate(-18.09 0)" fill="#e30613"/><path d="M391.5,145.36a15.61,15.61,0,1,0-15.61-15.61A15.62,15.62,0,0,0,391.5,145.36Zm0-23.7a8.1,8.1,0,1,1-8.1,8.09A8.1,8.1,0,0,1,391.5,121.66Z" transform="translate(-18.09 0)"/><circle cx="28.31" cy="49.15" r="11.83" fill="#e30613"/><path d="M46.4,52a11.83,11.83,0,0,1-10.94-7.33,11.83,11.83,0,1,0,21.88,0A11.83,11.83,0,0,1,46.4,52Z" transform="translate(-18.09 0)" fill="#e30613"/><path d="M46.52,64.54A15.61,15.61,0,1,0,30.91,48.93,15.62,15.62,0,0,0,46.52,64.54Zm0-23.7a8.1,8.1,0,1,1-8.09,8.1A8.1,8.1,0,0,1,46.52,40.84Z" transform="translate(-18.09 0)"/><circle cx="147.97" cy="127.86" r="9.52" fill="#e30613"/><path d="M166.06,130.14a9.54,9.54,0,0,1-8.81-5.9,9.53,9.53,0,1,0,17.62,0A9.52,9.52,0,0,1,166.06,130.14Z" transform="translate(-18.09 0)" fill="#e30613"/><path d="M166.16,140.25a12.57,12.57,0,1,0-12.56-12.56A12.58,12.58,0,0,0,166.16,140.25Zm0-19.08a6.52,6.52,0,1,1-6.52,6.52A6.53,6.53,0,0,1,166.16,121.17Z" transform="translate(-18.09 0)"/><circle cx="128.64" cy="29.6" r="15.08" fill="#e30613"/><path d="M146.72,33.2a15.07,15.07,0,0,1-13.94-9.34,15.08,15.08,0,1,0,27.89,0A15.09,15.09,0,0,1,146.72,33.2Z" transform="translate(-18.09 0)" fill="#e30613"/><path d="M146.88,49.22A19.9,19.9,0,1,0,127,29.32,19.92,19.92,0,0,0,146.88,49.22Zm0-30.21a10.32,10.32,0,1,1-10.32,10.32A10.33,10.33,0,0,1,146.88,19Z" transform="translate(-18.09 0)"/><circle cx="414.54" cy="53.67" r="11.83" fill="#e30613"/><path d="M432.63,56.5a11.85,11.85,0,0,1-10.95-7.33,11.84,11.84,0,1,0,21.89,0A11.83,11.83,0,0,1,432.63,56.5Z" transform="translate(-18.09 0)" fill="#e30613"/><path d="M432.75,69.07a15.61,15.61,0,1,0-15.61-15.61A15.62,15.62,0,0,0,432.75,69.07Zm0-23.71a8.1,8.1,0,1,1-8.1,8.1A8.11,8.11,0,0,1,432.75,45.36Z" transform="translate(-18.09 0)"/><circle cx="279.32" cy="48.13" r="11.83" fill="#e30613"/><path d="M297.4,51a11.83,11.83,0,0,1-10.94-7.33,11.83,11.83,0,1,0,21.89,0A11.84,11.84,0,0,1,297.4,51Z" transform="translate(-18.09 0)" fill="#e30613"/><path d="M297.53,63.52a15.61,15.61,0,1,0-15.61-15.61A15.63,15.63,0,0,0,297.53,63.52Zm0-23.7a8.1,8.1,0,1,1-8.1,8.1A8.1,8.1,0,0,1,297.53,39.82Z" transform="translate(-18.09 0)"/><circle cx="298.38" cy="149.9" r="11.74" fill="#e30613"/><path d="M316.47,152.71a11.72,11.72,0,0,1-10.85-7.27,11.59,11.59,0,0,0-.88,4.46,11.74,11.74,0,1,0,23.47,0,11.59,11.59,0,0,0-.88-4.46A11.74,11.74,0,0,1,316.47,152.71Z" transform="translate(-18.09 0)" fill="#e30613"/><path d="M316.59,165.18a15.49,15.49,0,1,0-15.48-15.49A15.51,15.51,0,0,0,316.59,165.18Zm0-23.52a8,8,0,1,1-8,8A8,8,0,0,1,316.59,141.66Z" transform="translate(-18.09 0)"/><circle cx="237.79" cy="118.35" r="11.74" fill="#e30613"/><path d="M255.88,121.15A11.74,11.74,0,0,1,245,113.88a11.75,11.75,0,1,0,21.71,0A11.72,11.72,0,0,1,255.88,121.15Z" transform="translate(-18.09 0)" fill="#e30613"/><path d="M256,133.62a15.49,15.49,0,1,0-15.49-15.49A15.51,15.51,0,0,0,256,133.62Zm0-23.52a8,8,0,1,1-8,8A8,8,0,0,1,256,110.1Z" transform="translate(-18.09 0)"/></svg>