<svg id="Capa_1" data-name="Capa 1" xmlns="http://www.w3.org/2000/svg" viewBox="0 0 475.82 512"><title>white-color</title><path d="M465.77,200.46a32.12,32.12,0,0,0-4-64H50.21a32.12,32.12,0,0,0-4,64,330.26,330.26,0,0,0-18.07,55.76c-5.07,22.37-7.25,43.74-6.48,63.53,1,25.05,6.68,47.64,17,67.14a132.78,132.78,0,0,0,21.26,29.53c-18.51,53.52-18.42,84.06.28,93.29A21.81,21.81,0,0,0,70,512c16.24,0,36.12-17.4,60.35-52.67a311.65,311.65,0,0,0,61.05,13.76,7.51,7.51,0,0,0,1.93-14.9C122.13,449,74.59,422.63,52,379.92c-21-39.75-16.64-87.2-9.25-120a315,315,0,0,1,19.83-59.21h57.27v94.63a30.29,30.29,0,0,0,60.58,0V241.71a15.26,15.26,0,1,1,30.52,0v13.06a30.29,30.29,0,0,0,60.58,0V200.71h92.22a7.52,7.52,0,1,0,0-15H271.52V151.5H461.79a17.09,17.09,0,1,1,0,34.18h-68a7.52,7.52,0,1,0,0,15h55.63A314,314,0,0,1,470,263.13c7.3,34.24,10.84,83.43-13.71,123.38-30.76,50-98.14,75.42-200.25,75.42-11.47,0-22.67-.33-33.28-1a7.51,7.51,0,1,0-.91,15c10.91.67,22.42,1,34.19,1q74.42,0,125.69-17.62C405.92,494.61,425.8,512,442,512a21.81,21.81,0,0,0,9.74-2.29c18.7-9.23,18.79-39.78.28-93.3a133.82,133.82,0,0,0,17-22.08c21.53-35.06,26.88-81.64,15.5-134.72a329,329,0,0,0-18.82-59.15ZM90.24,484.77c-10.1,9.63-18.62,13.81-23.37,11.46-7.09-3.5-9.56-23.63,5.13-68.54a173,173,0,0,0,43.84,26.13C106.62,467,98,477.35,90.24,484.77Zm-40-299.08a17.1,17.1,0,0,1,0-34.19h69.63v34.19Zm206.28,69.08a15.26,15.26,0,1,1-30.52,0V241.71a30.29,30.29,0,1,0-60.58,0v53.63a15.26,15.26,0,1,1-30.52,0V151.5H256.49ZM445.13,496.23c-4.75,2.35-13.27-1.83-23.37-11.46-7.79-7.42-16.38-17.81-25.6-30.95A173,173,0,0,0,440,427.69C454.69,472.6,452.23,492.73,445.13,496.23Z" transform="translate(-18.09 0)" fill="#fff"/><path d="M115.66,124.06A31.22,31.22,0,1,0,84.44,92.84,31.25,31.25,0,0,0,115.66,124.06Zm0-47.41A16.2,16.2,0,1,1,99.47,92.84,16.21,16.21,0,0,1,115.66,76.65Z" transform="translate(-18.09 0)" fill="#fff"/><path d="M316.14,129.17A31.22,31.22,0,1,0,284.92,98,31.25,31.25,0,0,0,316.14,129.17Zm0-47.41A16.19,16.19,0,1,1,299.94,98,16.22,16.22,0,0,1,316.14,81.76Z" transform="translate(-18.09 0)" fill="#fff"/><path d="M390.91,72.1A31.22,31.22,0,1,0,359.7,40.88,31.26,31.26,0,0,0,390.91,72.1Zm0-47.41a16.19,16.19,0,1,1-16.19,16.19A16.2,16.2,0,0,1,390.91,24.69Z" transform="translate(-18.09 0)" fill="#fff"/><path d="M203.32,66.74a7.52,7.52,0,0,0,1.57-10.51,25.86,25.86,0,1,1,20.8,10.5,7.52,7.52,0,0,0,0,15,40.88,40.88,0,1,0-32.88-16.59,7.52,7.52,0,0,0,10.51,1.57Z" transform="translate(-18.09 0)" fill="#fff"/></svg>